<svg width="1620" height="2024" version="1.1" xmlns="http://www.w3.org/2000/svg" desc="Created with imagetracer.js version 1.2.6" ><path fill="rgb(236,236,236)" stroke="rgb(236,236,236)" stroke-width="1" opacity="1" d="M 801.5 536 L 805 537.5 L 905 803.5 L 920 835.5 Q 925 845.5 933.5 852 L 941.5 856 L 949 856 L 948.5 860 L 846.5 860 L 845 857.5 L 846.5 856 L 859.5 856 L 866.5 854 Q 874.5 851.5 879 845.5 Q 885.3 837.8 883 821.5 L 875 794.5 L 838.5 700 L 837 704.5 L 838 705.5 L 838 716.5 L 839 717.5 L 839 742.5 L 838 743.5 L 838 755.5 L 837 756.5 L 837 763.5 L 834 779.5 L 826 804.5 Q 815.2 830.2 795.5 847 Q 781.5 858.5 761.5 864 L 750.5 866 L 728.5 866 Q 707.3 862.2 696 848.5 Q 688.5 840 684 828.5 L 681 817.5 L 680 801.5 L 681 800.5 L 681 790.5 L 683 782.5 L 688 770.5 Q 696.8 754.8 709.5 743 L 739.5 719 L 785.5 690 L 804 673.5 L 808 662.5 L 804.5 656 L 798.5 654 Q 790.2 656.2 786 662.5 Q 778.1 675.6 766.5 685 L 759.5 688 L 755.5 688 L 750 686 Q 747.4 682.8 748 675.5 L 788 567.5 L 798 541.5 L 801.5 536 Z M 789 575 L 753 671 L 752 682 L 757 685 Q 763 684 767 681 L 781 664 Q 787 654 800 651 L 806 652 Q 810 655 811 661 Q 812 675 805 682 L 788 698 L 758 718 L 738 734 Q 716 752 708 784 L 708 811 L 714 827 L 722 838 L 736 847 L 745 850 Q 751 848 753 851 L 763 851 L 778 848 Q 791 843 800 834 Q 816 818 825 794 L 832 770 L 834 752 L 835 751 L 835 738 L 836 737 L 835 705 L 834 704 L 834 697 L 831 681 L 792 577 L 789 575 Z " /><path fill="rgb(236,236,236)" stroke="rgb(236,236,236)" stroke-width="1" opacity="1" d="M 315.5 962 L 332.5 962 L 333.5 963 L 341.5 963 L 351.5 965 Q 365.1 969.2 374 977 L 384 992.5 L 391 1012.5 L 408 1096.5 Q 412.6 1114 422 1126 L 431.5 1132 L 435.5 1132 L 440.5 1129 Q 444.8 1130.8 442 1132.5 L 437.5 1139 Q 429.1 1145.6 413.5 1145 L 404.5 1143 L 391 1131.5 L 379 1108.5 L 372 1081.5 L 371 1071 Q 367.5 1069.9 369 1077.5 L 365 1095.5 L 361 1106.5 Q 353.9 1122.4 341.5 1133 Q 333.5 1140 321.5 1143 L 310.5 1145 L 295.5 1145 L 284.5 1143 L 270.5 1137 L 259 1126.5 Q 253.6 1119.9 252 1109.5 L 252 1090.5 Q 257.6 1066.6 274.5 1054 L 311.5 1029 L 330 1012.5 L 338 998.5 L 340 991.5 L 340 984.5 Q 337.8 976.2 331.5 972 Q 325.3 967.2 312.5 969 Q 300.2 971.7 291.5 978 L 269 997.5 L 263.5 1005 Q 260.9 1005.8 262 1002.5 L 252 977 L 260.5 973 L 283.5 966 L 294.5 965 L 301.5 963 L 314.5 963 L 315.5 962 Z M 348 987 L 348 991 L 348 999 L 345 1012 Q 339 1026 329 1036 L 303 1058 Q 288 1069 283 1090 L 283 1105 L 285 1113 L 288 1118 L 297 1125 L 310 1129 L 324 1128 L 338 1121 Q 350 1111 357 1096 L 361 1083 L 363 1066 L 364 1065 L 364 1034 L 361 1017 L 353 995 L 348 987 Z " /><path fill="rgb(236,236,236)" stroke="rgb(236,236,236)" stroke-width="1" opacity="1" d="M 548.5 962 L 555.5 962 L 565.5 964 Q 577.8 968.8 585 978.5 L 590 986.5 L 594 995.5 L 594 998.5 L 596.5 1002 L 614.5 981 L 633.5 967 L 644.5 963 L 658.5 962 L 668.5 964 L 678.5 969 L 688 978.5 L 696 993.5 L 704 1018.5 L 710 1048.5 L 712 1065.5 L 714 1071.5 L 714 1076.5 L 718 1092.5 L 723 1107.5 L 731 1123.5 L 735.5 1128 L 740.5 1131 L 745.5 1132 L 751.5 1129 L 754 1130.5 L 749.5 1138 L 741.5 1143 L 733.5 1145 L 723.5 1145 Q 709.6 1142.4 703 1132.5 L 694 1117.5 L 688 1100.5 L 687 1092.5 L 685 1088.5 L 685 1083.5 L 683 1079.5 L 683 1073.5 L 681 1067.5 L 677 1037.5 L 673 1024.5 L 673 1019.5 L 666 998.5 Q 662.3 988.2 654.5 982 Q 648.7 976.8 635.5 979 Q 615.8 986.8 604 1002.5 L 599 1009.5 L 599 1013.5 L 604 1030.5 L 604 1036.5 L 608 1052.5 L 610 1070.5 L 617 1100.5 L 626 1120.5 L 631 1127 L 637.5 1131 L 642.5 1132 L 649.5 1129 L 651 1131.5 L 646.5 1138 Q 637.9 1145.9 620.5 1145 L 609.5 1141 L 602 1134.5 L 592 1118.5 L 585 1099.5 L 579 1072.5 L 575 1042.5 L 569 1014.5 L 563 997.5 Q 559.8 988.8 553.5 983 Q 547.2 976.8 532.5 979 Q 515.6 985.6 505 998.5 L 494 1012.5 L 494 1116.5 L 498 1131.5 L 503.5 1139 L 515 1142 L 514.5 1145 L 442 1145 Q 440.3 1140.9 444.5 1142 L 455 1138 L 459 1131.5 L 463 1114.5 L 463 1014.5 L 459 997.5 L 451.5 989 L 442 987 Q 440.2 981.8 447.5 984 L 448.5 983 L 456.5 983 L 474.5 977 L 490 966.5 Q 489.3 964.3 491.5 965 L 494 964 L 494.5 1001 Q 505.3 985.8 519.5 974 L 530.5 967 L 541.5 963 Q 547 964.5 548.5 962 Z " /><path fill="rgb(236,236,236)" stroke="rgb(236,236,236)" stroke-width="1" opacity="1" d="M 1040.5 962 L 1053.5 962 L 1062.5 964 Q 1076 968.5 1085 977.5 L 1074.5 1005 L 1056.5 984 L 1044.5 976 L 1036.5 974 L 1029.5 974 L 1017.5 979 L 1004 990.5 L 987 1013.5 L 987 1106.5 L 988 1107.5 L 988 1117.5 L 990 1127.5 L 995 1137 L 1002.5 1141 L 1009 1142 L 1008.5 1145 L 936.5 1145 Q 933.5 1143.5 936.5 1142 Q 945.8 1141.3 950 1135.5 L 955 1125.5 L 956 1112.5 L 957 1111.5 L 957 1017.5 L 954 1000.5 Q 951.8 993.8 946.5 990 L 935 987 L 936.5 984 Q 968 983 984 966.5 L 986.5 963 L 987 1001 Q 989.7 1002.1 989 999.5 L 1010.5 976 Q 1022.1 965.6 1040.5 962 Z " /><path fill="rgb(236,236,236)" stroke="rgb(236,236,236)" stroke-width="1" opacity="1" d="M 904.5 963 L 905 1108.5 L 906 1109.5 L 907 1124.5 L 909 1130.5 L 915.5 1139 L 927 1142 L 926.5 1145 L 888.5 1145 L 880 1140.5 L 875 1128.5 L 875 1107 L 851.5 1125 L 834.5 1135 L 809.5 1144 L 793.5 1145 L 781.5 1142 L 772 1134.5 Q 766 1126.5 764 1114.5 L 764 1019.5 L 763 1018.5 L 763 1009.5 L 761 1000.5 L 753.5 990 L 742 987 L 743.5 984 Q 775 983 791 966.5 L 792.5 964 L 794 964.5 L 794 1100.5 L 797 1115.5 L 805.5 1125 L 813.5 1128 L 824.5 1128 L 832.5 1126 L 851.5 1116 L 875 1097.5 L 875 1019.5 L 874 1018.5 L 873 1004.5 L 871 998.5 L 864.5 990 L 853 987 L 854.5 984 Q 888.8 982.8 904.5 963 Z " /><path fill="rgb(236,236,236)" stroke="rgb(236,236,236)" stroke-width="1" opacity="1" d="M 1049.5 1075 Q 1067.8 1073.7 1075 1083.5 L 1072.5 1086 L 1068.5 1082 L 1058.5 1078 L 1050.5 1078 Q 1041.6 1080.6 1036 1086.5 L 1031 1097.5 L 1031 1107.5 Q 1033.3 1118.2 1041.5 1123 L 1050.5 1127 L 1058.5 1127 Q 1067.5 1125 1072.5 1119 L 1074.5 1122 Q 1067.5 1130 1052.5 1130 Q 1040.4 1128.1 1034 1120.5 L 1030 1114.5 L 1027 1102.5 Q 1029.5 1101 1028 1095.5 L 1031 1088.5 L 1038.5 1080 L 1049.5 1075 Z " /><path fill="rgb(236,236,236)" stroke="rgb(236,236,236)" stroke-width="1" opacity="1" d="M 1104.5 1075 L 1115.5 1075 Q 1125.1 1077.9 1131 1084.5 Q 1138.9 1091.6 1137 1108.5 Q 1133.9 1119.4 1125.5 1125 L 1120.5 1128 L 1109.5 1130 L 1099.5 1128 L 1088 1119.5 L 1084 1112.5 L 1082 1102.5 L 1084 1092.5 Q 1086.6 1085.1 1092.5 1081 L 1104.5 1075 Z M 1106 1078 L 1095 1083 Q 1088 1088 1086 1098 Q 1085 1109 1089 1116 L 1097 1123 L 1109 1127 L 1118 1126 L 1124 1123 Q 1132 1118 1134 1107 L 1134 1099 L 1130 1089 Q 1124 1077 1106 1078 Z " /><path fill="rgb(236,236,236)" stroke="rgb(236,236,236)" stroke-width="1" opacity="1" d="M 1347.5 1075 L 1354 1075 L 1354 1078 L 1344.5 1079 L 1335 1086.5 L 1332 1096.5 L 1332 1129 L 1329 1128.5 L 1329 1093.5 Q 1330.5 1084.5 1336.5 1080 L 1347.5 1075 Z " /><path fill="rgb(236,236,236)" stroke="rgb(236,236,236)" stroke-width="1" opacity="1" d="M 1150 1076 L 1153 1076.5 L 1153 1107.5 L 1156 1117.5 L 1162.5 1124 Q 1166.5 1127 1173.5 1127 L 1182.5 1124 L 1188 1118.5 L 1190 1115.5 L 1192 1106.5 L 1192 1076 L 1195 1076.5 L 1195 1108.5 Q 1192.7 1109.8 1194 1114.5 L 1187.5 1124 L 1181.5 1128 L 1172.5 1130 L 1159.5 1126 L 1154 1120.5 L 1150 1110.5 L 1150 1076 Z " /><path fill="rgb(236,236,236)" stroke="rgb(236,236,236)" stroke-width="1" opacity="1" d="M 1206 1076 L 1255.5 1076 L 1256 1079 L 1233 1079 L 1233 1128.5 L 1229 1129 L 1229 1079 L 1206.5 1079 L 1206 1076 Z " /><path fill="rgb(236,236,236)" stroke="rgb(236,236,236)" stroke-width="1" opacity="1" d="M 1267 1076 L 1270 1076.5 L 1270 1107.5 L 1273 1117.5 L 1279.5 1124 Q 1283.5 1127 1290.5 1127 L 1299.5 1124 L 1305 1118.5 L 1307 1115.5 L 1309 1106.5 L 1309 1076 L 1312 1076.5 L 1312 1108.5 Q 1309.8 1109.8 1311 1114.5 L 1304.5 1124 L 1298.5 1128 L 1289.5 1130 L 1276.5 1126 L 1271 1120.5 L 1267 1110.5 L 1267 1076 Z " /><path fill="rgb(236,236,236)" stroke="rgb(236,236,236)" stroke-width="1" opacity="1" d="M 1364 1076 L 1392.5 1076 L 1393 1079 L 1368 1079 L 1368 1100 L 1392.5 1100 L 1393 1103 L 1368 1103 L 1368 1125 L 1392.5 1125 L 1393 1129 L 1364 1129 L 1364 1076 Z " /><path fill="rgb(0,0,0)" stroke="rgb(0,0,0)" stroke-width="1" opacity="1" d="M 0 0 L 1620 0 L 1620 2024 L 0 2024 L 0 0 Z M 802 536 L 798 542 L 788 568 L 748 676 Q 747 683 750 686 L 756 688 L 760 688 L 767 685 Q 778 676 786 663 Q 790 656 799 654 L 805 656 L 808 663 L 804 674 L 786 690 L 740 719 L 710 743 Q 697 755 688 771 L 683 783 L 681 791 L 681 801 L 680 802 L 681 818 L 684 829 Q 688 840 696 849 Q 707 862 729 866 L 751 866 L 762 864 Q 781 858 796 847 Q 815 830 826 805 L 834 780 L 837 764 L 837 757 L 838 756 L 838 744 L 839 743 L 839 718 L 838 717 L 838 706 L 837 705 L 839 700 L 875 795 L 883 822 Q 885 838 879 846 Q 875 852 867 854 L 860 856 L 847 856 L 845 858 L 847 860 L 949 860 L 949 856 L 942 856 L 934 852 Q 925 845 920 836 L 905 804 L 805 538 L 802 536 Z M 316 962 L 315 963 L 302 963 L 295 965 L 284 966 L 261 973 L 252 977 L 262 1003 Q 261 1006 264 1005 L 269 998 L 292 978 Q 300 972 313 969 Q 325 967 332 972 Q 338 976 340 985 L 340 992 L 338 999 L 330 1013 L 312 1029 L 275 1054 Q 258 1067 252 1091 L 252 1110 Q 254 1120 259 1127 L 271 1137 L 285 1143 L 296 1145 L 311 1145 L 322 1143 Q 334 1140 342 1133 Q 354 1122 361 1107 L 365 1096 L 369 1078 Q 367 1070 371 1071 L 372 1082 L 379 1109 L 391 1132 L 405 1143 L 414 1145 Q 429 1146 438 1139 L 442 1133 Q 445 1131 441 1129 L 436 1132 L 432 1132 L 422 1126 Q 413 1114 408 1097 L 391 1013 L 384 993 L 374 977 Q 365 969 352 965 L 342 963 L 334 963 L 333 962 L 316 962 Z M 549 962 Q 547 965 542 963 L 531 967 L 520 974 Q 505 986 495 1001 L 494 964 L 492 965 Q 489 964 490 967 L 475 977 L 457 983 L 449 983 L 448 984 Q 440 982 442 987 L 452 989 L 459 998 L 463 1015 L 463 1115 L 459 1132 L 455 1138 L 445 1142 Q 440 1141 442 1145 L 515 1145 L 515 1142 L 504 1139 L 498 1132 L 494 1117 L 494 1013 L 505 999 Q 516 986 533 979 Q 547 977 554 983 Q 560 989 563 998 L 569 1015 L 575 1043 L 579 1073 L 585 1100 L 592 1119 L 602 1135 L 610 1141 L 621 1145 Q 638 1146 647 1138 L 651 1132 L 650 1129 L 643 1132 L 638 1131 L 631 1127 L 626 1121 L 617 1101 L 610 1071 L 608 1053 L 604 1037 L 604 1031 L 599 1014 L 599 1010 L 604 1003 Q 616 987 636 979 Q 649 977 655 982 Q 662 988 666 999 L 673 1020 L 673 1025 L 677 1038 L 681 1068 L 683 1074 L 683 1080 L 685 1084 L 685 1089 L 687 1093 L 688 1101 L 694 1118 L 703 1133 Q 710 1142 724 1145 L 734 1145 L 742 1143 L 750 1138 L 754 1131 L 752 1129 L 746 1132 L 741 1131 L 736 1128 L 731 1124 L 723 1108 L 718 1093 L 714 1077 L 714 1072 L 712 1066 L 710 1049 L 704 1019 L 696 994 L 688 979 L 679 969 L 669 964 L 659 962 L 645 963 L 634 967 L 615 981 L 597 1002 L 594 999 L 594 996 L 590 987 L 585 979 Q 578 969 566 964 L 556 962 L 549 962 Z M 1041 962 Q 1022 966 1011 976 L 989 1000 Q 990 1002 987 1001 L 987 963 L 984 967 Q 968 983 937 984 L 935 987 L 947 990 Q 952 994 954 1001 L 957 1018 L 957 1112 L 956 1113 L 955 1126 L 950 1136 Q 946 1141 937 1142 Q 934 1144 937 1145 L 1009 1145 L 1009 1142 L 1003 1141 L 995 1137 L 990 1128 L 988 1118 L 988 1108 L 987 1107 L 987 1014 L 1004 991 L 1018 979 L 1030 974 L 1037 974 L 1045 976 L 1057 984 L 1075 1005 L 1085 978 Q 1076 968 1063 964 L 1054 962 L 1041 962 Z M 905 963 Q 889 983 855 984 L 853 987 L 865 990 L 871 999 L 873 1005 L 874 1019 L 875 1020 L 875 1098 L 852 1116 L 833 1126 L 825 1128 L 814 1128 L 806 1125 L 797 1116 L 794 1101 L 794 965 L 793 964 L 791 967 Q 775 983 744 984 L 742 987 L 754 990 L 761 1001 L 763 1010 L 763 1019 L 764 1020 L 764 1115 Q 766 1127 772 1135 L 782 1142 L 794 1145 L 810 1144 L 835 1135 L 852 1125 L 875 1107 L 875 1129 L 880 1141 L 889 1145 L 927 1145 L 927 1142 L 916 1139 L 909 1131 L 907 1125 L 906 1110 L 905 1109 L 905 963 Z M 1050 1075 L 1039 1080 L 1031 1089 L 1028 1096 Q 1030 1101 1027 1103 L 1030 1115 L 1034 1121 Q 1040 1128 1053 1130 Q 1068 1130 1075 1122 L 1073 1119 Q 1068 1125 1059 1127 L 1051 1127 L 1042 1123 Q 1033 1118 1031 1108 L 1031 1098 L 1036 1087 Q 1042 1081 1051 1078 L 1059 1078 L 1069 1082 L 1073 1086 L 1075 1084 Q 1068 1074 1050 1075 Z M 1105 1075 L 1093 1081 Q 1087 1085 1084 1093 L 1082 1103 L 1084 1113 L 1088 1120 L 1100 1128 L 1110 1130 L 1121 1128 L 1126 1125 Q 1134 1119 1137 1109 Q 1139 1092 1131 1085 Q 1125 1078 1116 1075 L 1105 1075 Z M 1348 1075 L 1337 1080 Q 1330 1085 1329 1094 L 1329 1129 L 1332 1129 L 1332 1097 L 1335 1087 L 1345 1079 L 1354 1078 L 1354 1075 L 1348 1075 Z M 1150 1076 L 1150 1111 L 1154 1121 L 1160 1126 L 1173 1130 L 1182 1128 L 1188 1124 L 1194 1115 Q 1193 1110 1195 1109 L 1195 1077 L 1192 1076 L 1192 1107 L 1190 1116 L 1188 1119 L 1183 1124 L 1174 1127 Q 1167 1127 1163 1124 L 1156 1118 L 1153 1108 L 1153 1077 L 1150 1076 Z M 1206 1076 L 1207 1079 L 1229 1079 L 1229 1129 L 1233 1129 L 1233 1079 L 1256 1079 L 1256 1076 L 1206 1076 Z M 1267 1076 L 1267 1111 L 1271 1121 L 1277 1126 L 1290 1130 L 1299 1128 L 1305 1124 L 1311 1115 Q 1310 1110 1312 1109 L 1312 1077 L 1309 1076 L 1309 1107 L 1307 1116 L 1305 1119 L 1300 1124 L 1291 1127 Q 1284 1127 1280 1124 L 1273 1118 L 1270 1108 L 1270 1077 L 1267 1076 Z M 1364 1076 L 1364 1129 L 1393 1129 L 1393 1125 L 1368 1125 L 1368 1103 L 1393 1103 L 1393 1100 L 1368 1100 L 1368 1079 L 1393 1079 L 1393 1076 L 1364 1076 Z " /><path fill="rgb(0,0,0)" stroke="rgb(0,0,0)" stroke-width="1" opacity="1" d="M 789 575 L 792 576.5 L 831 680.5 L 834 696.5 L 834 703.5 L 835 704.5 L 836 736.5 L 835 737.5 L 835 750.5 L 834 751.5 L 832 769.5 L 825 793.5 Q 816.2 817.7 799.5 834 Q 790.8 843.3 777.5 848 L 762.5 851 L 752.5 851 Q 750.8 848.2 744.5 850 L 735.5 847 L 722 837.5 L 714 826.5 L 708 810.5 L 708 783.5 Q 715.8 751.8 737.5 734 L 757.5 718 L 787.5 698 L 805 681.5 Q 811.8 674.8 811 660.5 Q 809.8 654.8 805.5 652 L 799.5 651 Q 786.9 653.9 781 663.5 L 766.5 681 Q 763 684.5 756.5 685 L 752 681.5 L 753 670.5 L 789 575 Z " /><path fill="rgb(0,0,0)" stroke="rgb(0,0,0)" stroke-width="1" opacity="1" d="M 347.5 987 L 353 994.5 L 361 1016.5 L 364 1033.5 L 364 1064.5 L 363 1065.5 L 361 1082.5 L 357 1095.5 Q 350.1 1111.1 337.5 1121 L 323.5 1128 L 309.5 1129 L 296.5 1125 L 288 1117.5 L 285 1112.5 L 283 1104.5 L 283 1089.5 Q 288.4 1069.4 302.5 1058 L 329 1035.5 Q 339.1 1025.6 345 1011.5 L 348 998.5 L 348 990.5 L 347.5 987 Z " /><path fill="rgb(0,0,0)" stroke="rgb(0,0,0)" stroke-width="1" opacity="1" d="M 1105.5 1078 Q 1124 1077 1130 1088.5 L 1134 1098.5 L 1134 1106.5 Q 1131.6 1117.6 1123.5 1123 L 1117.5 1126 L 1108.5 1127 L 1096.5 1123 L 1089 1115.5 Q 1084.6 1109.4 1086 1097.5 Q 1088.1 1088.1 1094.5 1083 L 1105.5 1078 Z " /></svg>